STARTFONT 2.1
FONT -Adobe-ITC Souvenir-Light-R-Normal--24-240-75-75-P-135-ISO8859-15
SIZE 24 75 75
FONTBOUNDINGBOX 29 29 -1 -5

STARTPROPERTIES 30
FOUNDRY "Adobe"
FAMILY_NAME "ITC Souvenir"
WEIGHT_NAME "Light"
SLANT "R"
SETWIDTH_NAME "Normal"
ADD_STYLE_NAME ""
PIXEL_SIZE 24
POINT_SIZE 240
RESOLUTION_X 75
RESOLUTION_Y 75
SPACING "P"
AVERAGE_WIDTH 135
CHARSET_REGISTRY "ISO8859"
CHARSET_ENCODING "15"
CAP_HEIGHT 19
X_HEIGHT 12
FACE_NAME "ITC Souvenir Light"
COPYRIGHT "Copyright (c) 1984, 1987 Adobe Systems Incorporated. All Rights Reserved. Copyright (c) 1988, 1991 Digital Equipment Corporation. All Rights Reserved."
NOTICE "ITC Souvenir is a registered trademark of International Typeface Corporation.  "
_DEC_DEVICE_FONTNAMES "PS=Souvenir-Light"
_DEC_PRODUCTINFO "DECwindows Fonts V2.2, 07-Nov-1991"
RELATIVE_SETWIDTH 50
RELATIVE_WEIGHT 30
CHARSET_COLLECTIONS "ASCII ISO8859-1 ADOBE-STANDARD"
FULL_NAME "ITC Souvenir Light"
WEIGHT 10
QUAD_WIDTH 18
DEFAULT_CHAR 32
FONT_DESCENT 5
FONT_ASCENT 22
ENDPROPERTIES

CHARS 191

STARTCHAR space
ENCODING 32
SWIDTH 300 0
DWIDTH 7 0
BBX 1 1 0 0
BITMAP
00
ENDCHAR

STARTCHAR exclam
ENCODING 33
SWIDTH 300 0
DWIDTH 7 0
BBX 3 19 2 0
BITMAP
60
60
60
60
60
60
60
60
60
60
60
40
40
40
00
00
E0
E0
E0
ENDCHAR

STARTCHAR quotedbl
ENCODING 34
SWIDTH 360 0
DWIDTH 9 0
BBX 7 8 1 11
BITMAP
C6
C6
C6
C6
C6
84
84
84
ENDCHAR

STARTCHAR numbersign
ENCODING 35
SWIDTH 640 0
DWIDTH 15 0
BBX 14 15 0 2
BITMAP
0318
0318
0630
3FFC
3FFC
0C60
0C60
0840
18C0
FFF0
FFF0
3180
6300
6300
4200
ENDCHAR

STARTCHAR dollar
ENCODING 36
SWIDTH 600 0
DWIDTH 15 0
BBX 11 22 2 -2
BITMAP
0400
0400
3F80
64C0
C440
C440
C400
E400
7C00
3E00
0F80
07C0
04E0
0460
8460
8460
C460
64C0
3F80
0400
0400
0400
ENDCHAR

STARTCHAR percent
ENCODING 37
SWIDTH 820 0
DWIDTH 20 0
BBX 19 19 1 0
BITMAP
3C0200
660200
420600
C30C00
C30800
C31800
C31000
C33000
426780
664CC0
3CC840
019860
011860
031860
021860
061860
0C0840
080CC0
080780
ENDCHAR

STARTCHAR ampersand
ENCODING 38
SWIDTH 800 0
DWIDTH 20 0
BBX 18 19 1 0
BITMAP
07C000
1C6000
183000
303000
303000
386000
1CC000
0F8000
0E03C0
3F0180
738100
61C300
C0E600
C07C00
C03800
C03C00
606E40
70C7C0
1F0380
ENDCHAR

STARTCHAR quoteright
ENCODING 39
SWIDTH 280 0
DWIDTH 7 0
BBX 3 6 2 13
BITMAP
E0
E0
60
20
20
C0
ENDCHAR

STARTCHAR parenleft
ENCODING 40
SWIDTH 240 0
DWIDTH 6 0
BBX 4 23 1 -4
BITMAP
10
30
30
60
60
60
40
C0
C0
C0
C0
C0
C0
C0
C0
C0
40
60
60
20
30
30
10
ENDCHAR

STARTCHAR parenright
ENCODING 41
SWIDTH 240 0
DWIDTH 6 0
BBX 4 23 1 -4
BITMAP
80
C0
C0
40
60
60
20
30
30
30
30
30
30
30
30
30
20
60
60
60
C0
C0
80
ENDCHAR

STARTCHAR asterisk
ENCODING 42
SWIDTH 360 0
DWIDTH 9 0
BBX 7 8 1 11
BITMAP
10
10
D6
7C
7C
D6
10
10
ENDCHAR

STARTCHAR plus
ENCODING 43
SWIDTH 660 0
DWIDTH 17 0
BBX 12 12 3 1
BITMAP
0600
0600
0600
0600
0600
FFF0
FFF0
0600
0600
0600
0600
0600
ENDCHAR

STARTCHAR comma
ENCODING 44
SWIDTH 300 0
DWIDTH 7 0
BBX 3 6 2 -3
BITMAP
E0
E0
60
20
20
C0
ENDCHAR

STARTCHAR minus
ENCODING 45
SWIDTH 660 0
DWIDTH 17 0
BBX 12 2 3 6
BITMAP
FFF0
FFF0
ENDCHAR

STARTCHAR period
ENCODING 46
SWIDTH 300 0
DWIDTH 7 0
BBX 3 3 2 0
BITMAP
E0
E0
E0
ENDCHAR

STARTCHAR slash
ENCODING 47
SWIDTH 520 0
DWIDTH 13 0
BBX 11 23 1 -4
BITMAP
0020
0020
0060
0040
00C0
0080
0180
0100
0300
0200
0600
0400
0C00
0800
1800
1000
3000
2000
6000
4000
C000
8000
8000
ENDCHAR

STARTCHAR zero
ENCODING 48
SWIDTH 600 0
DWIDTH 15 0
BBX 13 19 1 0
BITMAP
1FC0
38E0
6030
6030
C018
C018
C018
C018
C018
C018
C018
C018
C018
C018
C018
6030
6030
38E0
1FC0
ENDCHAR

STARTCHAR one
ENCODING 49
SWIDTH 600 0
DWIDTH 15 0
BBX 9 19 3 0
BITMAP
0C00
3C00
FC00
0C00
0C00
0C00
0C00
0C00
0C00
0C00
0C00
0C00
0C00
0C00
0C00
0C00
0C00
1E00
7F80
ENDCHAR

STARTCHAR two
ENCODING 50
SWIDTH 600 0
DWIDTH 15 0
BBX 12 19 2 0
BITMAP
1F80
71C0
60E0
C060
C060
E060
6060
00C0
01C0
0380
0700
0E00
1C00
3800
7000
6010
C030
FFE0
FFE0
ENDCHAR

STARTCHAR three
ENCODING 51
SWIDTH 600 0
DWIDTH 15 0
BBX 12 19 2 0
BITMAP
1F80
31C0
60E0
6060
3060
0060
00E0
01C0
0F00
0FC0
00E0
0070
0030
0030
C030
C030
C060
60C0
3F80
ENDCHAR

STARTCHAR four
ENCODING 52
SWIDTH 600 0
DWIDTH 15 0
BBX 13 19 1 0
BITMAP
0040
01C0
03C0
06C0
0CC0
18C0
30C0
20C0
60C0
40C0
C0C0
80C0
FFF8
FFF8
00C0
00C0
00C0
00C0
03F0
ENDCHAR

STARTCHAR five
ENCODING 53
SWIDTH 600 0
DWIDTH 15 0
BBX 12 19 2 0
BITMAP
7FE0
7F80
4000
4000
4000
4000
4000
4F80
79E0
6060
4030
0030
0030
0030
0030
C060
C060
71C0
3F00
ENDCHAR

STARTCHAR six
ENCODING 54
SWIDTH 600 0
DWIDTH 15 0
BBX 12 19 2 0
BITMAP
01C0
0700
1C00
3800
3000
6000
6000
CF80
F8E0
E060
C030
C030
C030
C030
C030
E020
6060
78C0
1F00
ENDCHAR

STARTCHAR seven
ENCODING 55
SWIDTH 600 0
DWIDTH 15 0
BBX 11 19 2 0
BITMAP
FFE0
FFE0
8040
80C0
00C0
0180
0180
0100
0300
0300
0600
0600
0E00
0C00
0C00
1C00
1800
3800
3000
ENDCHAR

STARTCHAR eight
ENCODING 56
SWIDTH 600 0
DWIDTH 15 0
BBX 13 19 1 0
BITMAP
0FC0
3860
3030
6030
6030
7030
7060
3CC0
1F80
0FE0
30F0
6038
C018
C018
C018
C018
6030
3860
1F80
ENDCHAR

STARTCHAR nine
ENCODING 57
SWIDTH 600 0
DWIDTH 15 0
BBX 12 19 2 0
BITMAP
0F80
30E0
6060
4070
C030
C030
C030
C030
C030
6070
70B0
1F30
0060
0060
00C0
01C0
0380
0E00
3000
ENDCHAR

STARTCHAR colon
ENCODING 58
SWIDTH 300 0
DWIDTH 7 0
BBX 3 10 2 0
BITMAP
E0
E0
E0
00
00
00
00
E0
E0
E0
ENDCHAR

STARTCHAR semicolon
ENCODING 59
SWIDTH 300 0
DWIDTH 7 0
BBX 3 13 2 -3
BITMAP
E0
E0
E0
00
00
00
00
E0
E0
60
20
20
C0
ENDCHAR

STARTCHAR less
ENCODING 60
SWIDTH 660 0
DWIDTH 17 0
BBX 13 12 2 1
BITMAP
0038
00F0
03C0
0F00
3C00
E000
E000
3C00
0F00
03C0
00F0
0038
ENDCHAR

STARTCHAR equal
ENCODING 61
SWIDTH 660 0
DWIDTH 17 0
BBX 12 6 3 4
BITMAP
FFF0
FFF0
0000
0000
FFF0
FFF0
ENDCHAR

STARTCHAR greater
ENCODING 62
SWIDTH 660 0
DWIDTH 17 0
BBX 13 12 2 1
BITMAP
E000
7800
1E00
0780
01E0
0038
0038
01E0
0780
1E00
7800
E000
ENDCHAR

STARTCHAR question
ENCODING 63
SWIDTH 460 0
DWIDTH 11 0
BBX 9 19 1 0
BITMAP
3E00
6300
C180
C180
0180
0180
0300
0700
0E00
1C00
1800
1000
1000
1000
0000
0000
3800
3800
3800
ENDCHAR

STARTCHAR at
ENCODING 64
SWIDTH 820 0
DWIDTH 21 0
BBX 17 19 2 0
BITMAP
03F000
0E1C00
180600
300300
61E100
43B580
C71C80
8E1880
8C1880
9C3880
983180
987100
D86300
4CE600
67BC80
200180
380300
0E0E00
03F800
ENDCHAR

STARTCHAR A
ENCODING 65
SWIDTH 720 0
DWIDTH 18 0
BBX 18 19 0 0
BITMAP
008000
01C000
01E000
036000
027000
063000
043800
0C1800
081C00
080C00
180C00
100600
3FFE00
200700
200300
600300
400180
400180
E003C0
ENDCHAR

STARTCHAR B
ENCODING 66
SWIDTH 680 0
DWIDTH 17 0
BBX 15 19 1 0
BITMAP
FFF0
6018
600C
600C
600C
6018
6030
6060
61C0
67F0
7C3C
700C
6006
6006
6006
600C
600C
6038
FFF0
ENDCHAR

STARTCHAR C
ENCODING 67
SWIDTH 720 0
DWIDTH 17 0
BBX 15 19 1 0
BITMAP
07F0
1C1E
3806
7006
6002
6000
C000
C000
C000
C000
C000
C000
C000
6000
6002
7006
380C
1C1C
07F0
ENDCHAR

STARTCHAR D
ENCODING 68
SWIDTH 740 0
DWIDTH 18 0
BBX 16 19 1 0
BITMAP
FFE0
6038
601C
600E
6006
6006
6003
6003
6003
6003
6003
6003
6003
6006
6006
600E
601C
6038
FFE0
ENDCHAR

STARTCHAR E
ENCODING 69
SWIDTH 600 0
DWIDTH 15 0
BBX 13 19 1 0
BITMAP
FFF0
6030
6010
6000
6000
6000
6000
6000
6040
7FC0
6040
6000
6000
6000
6000
6008
6008
6018
FFF8
ENDCHAR

STARTCHAR F
ENCODING 70
SWIDTH 560 0
DWIDTH 14 0
BBX 12 19 1 0
BITMAP
FFF0
6030
6010
6000
6000
6000
6000
6000
6040
7FC0
6040
6000
6000
6000
6000
6000
6000
6000
F000
ENDCHAR

STARTCHAR G
ENCODING 71
SWIDTH 760 0
DWIDTH 19 0
BBX 17 19 1 0
BITMAP
07F800
1C0F00
380300
700300
600100
600000
C00000
C00000
C00000
C00000
C01F80
C00380
C00180
600180
600180
700380
380300
1C0E00
07F800
ENDCHAR

STARTCHAR H
ENCODING 72
SWIDTH 800 0
DWIDTH 19 0
BBX 17 19 1 0
BITMAP
F00780
600300
600300
600300
600300
600300
600300
600300
600300
7FFF00
600300
600300
600300
600300
600300
600300
600300
600300
F00780
ENDCHAR

STARTCHAR I
ENCODING 73
SWIDTH 260 0
DWIDTH 6 0
BBX 4 19 1 0
BITMAP
F0
60
60
60
60
60
60
60
60
60
60
60
60
60
60
60
60
60
F0
ENDCHAR

STARTCHAR J
ENCODING 74
SWIDTH 480 0
DWIDTH 13 0
BBX 11 19 1 0
BITMAP
01E0
00C0
00C0
00C0
00C0
00C0
00C0
00C0
00C0
00C0
00C0
60C0
E0C0
C0C0
80C0
80C0
C0C0
6180
3F00
ENDCHAR

STARTCHAR K
ENCODING 75
SWIDTH 700 0
DWIDTH 17 0
BBX 16 19 1 0
BITMAP
F01E
600C
6018
6030
6060
60C0
6180
6300
6700
6F80
79C0
70E0
6070
6038
6018
601C
600C
600E
F01F
ENDCHAR

STARTCHAR L
ENCODING 76
SWIDTH 600 0
DWIDTH 15 0
BBX 13 19 1 0
BITMAP
F000
6000
6000
6000
6000
6000
6000
6000
6000
6000
6000
6000
6000
6000
6000
6008
6008
6018
FFF8
ENDCHAR

STARTCHAR M
ENCODING 77
SWIDTH 860 0
DWIDTH 20 0
BBX 18 19 1 0
BITMAP
F003C0
780380
580580
5C0580
4C0D80
4C0980
4E0980
461980
461180
431180
433180
43A180
41E180
41C180
40C180
40C180
400180
400180
E003C0
ENDCHAR

STARTCHAR N
ENCODING 78
SWIDTH 740 0
DWIDTH 18 0
BBX 16 19 1 0
BITMAP
F007
7802
5C02
4E02
4602
4702
4382
4182
41C2
40E2
4062
4072
4032
401A
401E
400E
400E
4006
E006
ENDCHAR

STARTCHAR O
ENCODING 79
SWIDTH 800 0
DWIDTH 20 0
BBX 18 19 1 0
BITMAP
07F800
1E1E00
380700
300300
600180
600180
C000C0
C000C0
C000C0
C000C0
C000C0
C000C0
C000C0
600180
600180
300300
380700
1E1E00
07F800
ENDCHAR

STARTCHAR P
ENCODING 80
SWIDTH 620 0
DWIDTH 15 0
BBX 13 19 1 0
BITMAP
FFE0
6070
6038
6018
6018
6018
6038
6030
6060
60C0
6380
7E00
6000
6000
6000
6000
6000
6000
F000
ENDCHAR

STARTCHAR Q
ENCODING 81
SWIDTH 800 0
DWIDTH 20 0
BBX 18 22 1 -3
BITMAP
07F800
1E1E00
380700
700380
600180
600180
C000C0
C000C0
C000C0
C000C0
C000C0
C000C0
C000C0
600180
608180
708380
38C700
1E4E00
07F800
003800
001F80
000700
ENDCHAR

STARTCHAR R
ENCODING 82
SWIDTH 680 0
DWIDTH 17 0
BBX 15 19 1 0
BITMAP
FFE0
6070
6038
6018
6018
6038
6030
60E0
6380
6F00
7B80
61C0
60E0
6070
6030
6038
6018
601C
F03E
ENDCHAR

STARTCHAR S
ENCODING 83
SWIDTH 600 0
DWIDTH 15 0
BBX 13 19 1 0
BITMAP
1F80
70E0
6030
C030
C010
C010
E000
7800
3E00
0F80
03E0
00F0
0038
8018
8018
C018
C030
7060
1FC0
ENDCHAR

STARTCHAR T
ENCODING 84
SWIDTH 640 0
DWIDTH 16 0
BBX 14 19 1 0
BITMAP
FFFC
C30C
8304
0300
0300
0300
0300
0300
0300
0300
0300
0300
0300
0300
0300
0300
0300
0300
0780
ENDCHAR

STARTCHAR U
ENCODING 85
SWIDTH 760 0
DWIDTH 18 0
BBX 16 19 1 0
BITMAP
F007
6002
6002
6002
6002
6002
6002
6002
6002
6002
6002
6002
6002
6002
7006
3004
380C
1E38
07E0
ENDCHAR

STARTCHAR V
ENCODING 86
SWIDTH 700 0
DWIDTH 16 0
BBX 16 19 0 0
BITMAP
F007
6002
6002
7006
3004
3004
380C
1808
1808
1C18
0C10
0C10
0E20
0620
0760
0340
03C0
0180
0180
ENDCHAR

STARTCHAR W
ENCODING 87
SWIDTH 940 0
DWIDTH 24 0
BBX 24 19 0 0
BITMAP
F03E0F
601C06
601C06
701C06
301E04
301604
383604
18260C
182708
1C2308
0C6318
0C4390
0E4390
064190
07C1B0
0780E0
0380E0
010040
010040
ENDCHAR

STARTCHAR X
ENCODING 88
SWIDTH 700 0
DWIDTH 17 0
BBX 16 19 1 0
BITMAP
F81E
700C
3008
3818
1830
1C20
0C60
06C0
0780
0380
03C0
06E0
0C70
0830
1818
301C
200C
600E
F01F
ENDCHAR

STARTCHAR Y
ENCODING 89
SWIDTH 700 0
DWIDTH 18 0
BBX 18 19 0 0
BITMAP
F803C0
700180
300100
380300
180200
1C0600
0E0C00
071800
03B000
01E000
00C000
00C000
00C000
00C000
00C000
00C000
00C000
00C000
01E000
ENDCHAR

STARTCHAR Z
ENCODING 90
SWIDTH 580 0
DWIDTH 15 0
BBX 13 19 1 0
BITMAP
7FF8
6018
4038
0030
0060
00E0
00C0
0180
0380
0300
0600
0E00
0C00
1800
3800
3000
6008
E018
FFF8
ENDCHAR

STARTCHAR bracketleft
ENCODING 91
SWIDTH 240 0
DWIDTH 6 0
BBX 4 23 1 -4
BITMAP
F0
C0
C0
C0
C0
C0
C0
C0
C0
C0
C0
C0
C0
C0
C0
C0
C0
C0
C0
C0
C0
C0
F0
ENDCHAR

STARTCHAR backslash
ENCODING 92
SWIDTH 600 0
DWIDTH 14 0
BBX 10 19 2 0
BITMAP
8000
C000
4000
6000
2000
3000
1000
1800
0800
0C00
0400
0600
0200
0300
0100
0180
0080
00C0
0040
ENDCHAR

STARTCHAR bracketright
ENCODING 93
SWIDTH 240 0
DWIDTH 6 0
BBX 4 23 1 -4
BITMAP
F0
30
30
30
30
30
30
30
30
30
30
30
30
30
30
30
30
30
30
30
30
30
F0
ENDCHAR

STARTCHAR asciicircum
ENCODING 94
SWIDTH 660 0
DWIDTH 17 0
BBX 10 11 3 8
BITMAP
0C00
0C00
1E00
1200
3300
3300
6180
6180
C0C0
C0C0
8040
ENDCHAR

STARTCHAR underscore
ENCODING 95
SWIDTH 500 0
DWIDTH 13 0
BBX 13 1 0 -3
BITMAP
FFF8
ENDCHAR

STARTCHAR quoteleft
ENCODING 96
SWIDTH 280 0
DWIDTH 7 0
BBX 3 6 2 13
BITMAP
60
80
80
C0
E0
E0
ENDCHAR

STARTCHAR a
ENCODING 97
SWIDTH 500 0
DWIDTH 12 0
BBX 11 12 1 0
BITMAP
3F00
6180
00C0
00C0
1FC0
70C0
E0C0
C0C0
C0C0
C1C0
E3C0
7E60
ENDCHAR

STARTCHAR b
ENCODING 98
SWIDTH 520 0
DWIDTH 13 0
BBX 12 19 0 0
BITMAP
6000
E000
6000
6000
6000
6000
6000
6FC0
78E0
7070
6030
6030
6030
6030
6030
6030
6060
30C0
1F80
ENDCHAR

STARTCHAR c
ENCODING 99
SWIDTH 460 0
DWIDTH 12 0
BBX 10 12 1 0
BITMAP
1F00
60C0
60C0
C000
C000
C000
C000
C000
C000
6040
61C0
1F00
ENDCHAR

STARTCHAR d
ENCODING 100
SWIDTH 520 0
DWIDTH 13 0
BBX 12 19 1 0
BITMAP
0060
00E0
0060
0060
0060
0060
0060
1F60
61E0
60E0
C060
C060
C060
C060
C060
C060
60E0
61E0
1F30
ENDCHAR

STARTCHAR e
ENCODING 101
SWIDTH 500 0
DWIDTH 12 0
BBX 10 12 1 0
BITMAP
1F80
31C0
60C0
60C0
C180
C300
FC00
C000
C000
6040
79C0
1F00
ENDCHAR

STARTCHAR f
ENCODING 102
SWIDTH 300 0
DWIDTH 7 0
BBX 7 19 0 0
BITMAP
0E
1A
10
30
30
30
30
FC
30
30
30
30
30
30
30
30
30
30
78
ENDCHAR

STARTCHAR g
ENCODING 103
SWIDTH 520 0
DWIDTH 14 0
BBX 12 17 1 -5
BITMAP
1FF0
60C0
60C0
C060
C060
C060
C060
C060
60C0
60C0
1F80
0060
0030
4030
C030
E0E0
7F80
ENDCHAR

STARTCHAR h
ENCODING 104
SWIDTH 560 0
DWIDTH 14 0
BBX 12 19 1 0
BITMAP
6000
E000
6000
6000
6000
6000
6000
6F80
70C0
6060
6060
6060
6060
6060
6060
6060
6060
6060
F0F0
ENDCHAR

STARTCHAR i
ENCODING 105
SWIDTH 240 0
DWIDTH 6 0
BBX 4 16 1 0
BITMAP
60
60
00
00
60
E0
60
60
60
60
60
60
60
60
60
F0
ENDCHAR

STARTCHAR j
ENCODING 106
SWIDTH 220 0
DWIDTH 6 0
BBX 5 21 -1 -5
BITMAP
18
18
00
00
18
38
18
18
18
18
18
18
18
18
18
18
18
18
10
F0
E0
ENDCHAR

STARTCHAR k
ENCODING 107
SWIDTH 500 0
DWIDTH 13 0
BBX 12 19 1 0
BITMAP
6000
E000
6000
6000
6000
6000
6000
63C0
6180
6100
6200
6600
6F00
7380
6180
61C0
60C0
60E0
F1F0
ENDCHAR

STARTCHAR l
ENCODING 108
SWIDTH 220 0
DWIDTH 6 0
BBX 4 19 1 0
BITMAP
60
E0
60
60
60
60
60
60
60
60
60
60
60
60
60
60
60
60
F0
ENDCHAR

STARTCHAR m
ENCODING 109
SWIDTH 840 0
DWIDTH 20 0
BBX 18 12 1 0
BITMAP
6F9F00
F1A300
60C180
60C180
60C180
60C180
60C180
60C180
60C180
60C180
60C180
F1E3C0
ENDCHAR

STARTCHAR n
ENCODING 110
SWIDTH 560 0
DWIDTH 14 0
BBX 12 12 1 0
BITMAP
6F80
F0C0
6060
6060
6060
6060
6060
6060
6060
6060
6060
F0F0
ENDCHAR

STARTCHAR o
ENCODING 111
SWIDTH 560 0
DWIDTH 13 0
BBX 11 12 1 0
BITMAP
1F00
60C0
60C0
C060
C060
C060
C060
C060
C060
60C0
60C0
1F00
ENDCHAR

STARTCHAR p
ENCODING 112
SWIDTH 580 0
DWIDTH 14 0
BBX 12 17 1 -5
BITMAP
6F80
F860
6060
6030
6030
6030
6030
6030
6030
6060
6860
6780
6000
6000
6000
6000
F000
ENDCHAR

STARTCHAR q
ENCODING 113
SWIDTH 520 0
DWIDTH 13 0
BBX 12 17 1 -5
BITMAP
1F20
61E0
60E0
C060
C060
C060
C060
C060
C060
60E0
61E0
1F60
0060
0060
0060
0060
00F0
ENDCHAR

STARTCHAR r
ENCODING 114
SWIDTH 360 0
DWIDTH 9 0
BBX 8 12 1 0
BITMAP
67
FB
31
30
30
30
30
30
30
30
30
78
ENDCHAR

STARTCHAR s
ENCODING 115
SWIDTH 400 0
DWIDTH 10 0
BBX 8 12 1 0
BITMAP
3E
66
C2
C0
E0
78
1E
07
03
83
C6
7C
ENDCHAR

STARTCHAR t
ENCODING 116
SWIDTH 300 0
DWIDTH 8 0
BBX 7 17 1 0
BITMAP
10
10
10
30
30
FE
30
30
30
30
30
30
30
30
30
38
1E
ENDCHAR

STARTCHAR u
ENCODING 117
SWIDTH 520 0
DWIDTH 13 0
BBX 12 12 1 0
BITMAP
6060
E0E0
6060
6060
6060
6060
6060
6060
6060
60E0
7160
3E70
ENDCHAR

STARTCHAR v
ENCODING 118
SWIDTH 460 0
DWIDTH 13 0
BBX 11 12 1 0
BITMAP
F0E0
6040
6040
6040
30C0
3080
3080
1980
1900
0D00
0E00
0600
ENDCHAR

STARTCHAR w
ENCODING 119
SWIDTH 720 0
DWIDTH 18 0
BBX 18 12 0 0
BITMAP
F0F1C0
606080
606080
606080
30E180
30B100
30B100
199900
191B00
0F1A00
0E0E00
060C00
ENDCHAR

STARTCHAR x
ENCODING 120
SWIDTH 500 0
DWIDTH 13 0
BBX 13 12 0 0
BITMAP
F8F0
7060
3840
1C80
0D80
0700
0700
0D80
19C0
30E0
6070
F0F8
ENDCHAR

STARTCHAR y
ENCODING 121
SWIDTH 480 0
DWIDTH 12 0
BBX 12 17 0 -5
BITMAP
F070
6020
6020
6020
6020
6020
6060
3040
3040
18C0
1D80
0F80
0100
0300
0600
4C00
7800
ENDCHAR

STARTCHAR z
ENCODING 122
SWIDTH 420 0
DWIDTH 11 0
BBX 10 12 1 0
BITMAP
FF80
C180
8180
0300
0600
0C00
1800
3000
6000
C040
C0C0
FF80
ENDCHAR

STARTCHAR braceleft
ENCODING 123
SWIDTH 300 0
DWIDTH 8 0
BBX 6 24 1 -5
BITMAP
0C
10
30
30
30
30
30
30
30
30
20
E0
20
30
30
30
30
30
30
30
30
30
10
0C
ENDCHAR

STARTCHAR bar
ENCODING 124
SWIDTH 660 0
DWIDTH 17 0
BBX 2 19 7 0
BITMAP
C0
C0
C0
C0
C0
C0
C0
C0
C0
C0
C0
C0
C0
C0
C0
C0
C0
C0
C0
ENDCHAR

STARTCHAR braceright
ENCODING 125
SWIDTH 300 0
DWIDTH 8 0
BBX 6 24 1 -5
BITMAP
C0
20
30
30
30
30
30
30
30
30
10
1C
10
30
30
30
30
30
30
30
30
30
20
C0
ENDCHAR

STARTCHAR asciitilde
ENCODING 126
SWIDTH 660 0
DWIDTH 17 0
BBX 13 4 2 5
BITMAP
3818
7E18
C3F0
C1E0
ENDCHAR

STARTCHAR space
ENCODING 160
SWIDTH 300 0
DWIDTH 7 0
BBX 1 1 0 0
BITMAP
00
ENDCHAR

STARTCHAR exclamdown
ENCODING 161
SWIDTH 300 0
DWIDTH 7 0
BBX 3 17 2 -5
BITMAP
E0
E0
E0
00
00
40
40
40
C0
C0
C0
C0
C0
C0
C0
C0
C0
ENDCHAR

STARTCHAR cent
ENCODING 162
SWIDTH 600 0
DWIDTH 15 0
BBX 10 19 2 0
BITMAP
0400
0400
0400
1F00
3FC0
64C0
C400
C400
C400
C400
C400
C400
E440
74C0
3F80
0E00
0400
0400
0400
ENDCHAR

STARTCHAR sterling
ENCODING 163
SWIDTH 600 0
DWIDTH 15 0
BBX 13 19 1 0
BITMAP
07C0
1C60
1820
3030
3030
3000
3000
3000
3000
3800
7F80
1800
1800
1800
1800
1800
3018
7FF0
C3E0
ENDCHAR

STARTCHAR EuroSign
ENCODING 164
SWIDTH 500 0
DWIDTH 12 0
BBX 13 16 -1 0
BITMAP
03F0
0C18
0808
1808
3000
3000
FFE0
3000
FFC0
3000
3000
3000
1808
1810
0C20
07C0
ENDCHAR

STARTCHAR yen
ENCODING 165
SWIDTH 600 0
DWIDTH 15 0
BBX 15 19 0 0
BITMAP
F81E
700C
300C
1808
1818
0C10
0C30
0620
0660
03C0
1FF8
0180
0180
1FF8
0180
0180
0180
0180
03C0
ENDCHAR

STARTCHAR Scaron
ENCODING 166
SWIDTH 600 0
DWIDTH 15 0
BBX 13 24 1 0
BITMAP
18C0
0D80
0700
0200
0000
1F80
70E0
6030
C030
C010
C010
E000
7800
3E00
0F80
03E0
00F0
0038
8018
8018
C018
C030
7060
1FC0
ENDCHAR

STARTCHAR section
ENCODING 167
SWIDTH 520 0
DWIDTH 13 0
BBX 11 24 1 -5
BITMAP
1F80
30E0
6060
6020
6020
7000
3C00
3F00
6780
C1C0
C0E0
C060
E060
7860
3CC0
0F80
03C0
00E0
0060
8060
8060
C0C0
6180
3E00
ENDCHAR

STARTCHAR scaron
ENCODING 168
SWIDTH 400 0
DWIDTH 10 0
BBX 8 17 1 0
BITMAP
63
36
1C
08
00
3E
66
C2
C0
E0
78
1E
07
03
83
C6
7C
ENDCHAR

STARTCHAR copyright
ENCODING 169
SWIDTH 840 0
DWIDTH 21 0
BBX 18 19 1 0
BITMAP
03F000
0E1C00
180600
31E300
63F180
461880
CC08C0
8C0040
8C0040
8C0040
8C0040
8C0040
CC08C0
461880
63F180
31E300
180600
0E1C00
03F000
ENDCHAR

STARTCHAR ordfeminine
ENCODING 170
SWIDTH 400 0
DWIDTH 10 0
BBX 7 11 1 8
BITMAP
78
8C
04
7C
C4
C4
CC
76
00
00
FE
ENDCHAR

STARTCHAR guillemotleft
ENCODING 171
SWIDTH 340 0
DWIDTH 9 0
BBX 8 8 0 3
BITMAP
11
33
66
CC
CC
66
33
11
ENDCHAR

STARTCHAR logicalnot
ENCODING 172
SWIDTH 660 0
DWIDTH 17 0
BBX 12 8 3 2
BITMAP
FFF0
FFF0
0030
0030
0030
0030
0030
0030
ENDCHAR

STARTCHAR hyphen
ENCODING 173
SWIDTH 300 0
DWIDTH 8 0
BBX 6 2 1 6
BITMAP
FC
FC
ENDCHAR

STARTCHAR registered
ENCODING 174
SWIDTH 800 0
DWIDTH 20 0
BBX 18 19 1 0
BITMAP
03F000
0E1C00
180600
300300
6FF180
463880
C618C0
861840
863040
866040
87E040
863040
C638C0
461880
6F3D80
300300
180600
0E1C00
03F000
ENDCHAR

STARTCHAR macron
ENCODING 175
SWIDTH 380 0
DWIDTH 10 0
BBX 6 1 2 15
BITMAP
FC
ENDCHAR

STARTCHAR degree
ENCODING 176
SWIDTH 400 0
DWIDTH 9 0
BBX 8 7 0 12
BITMAP
3C
66
C3
C3
C3
66
3C
ENDCHAR

STARTCHAR plusminus
ENCODING 177
SWIDTH 660 0
DWIDTH 17 0
BBX 12 13 3 0
BITMAP
0600
0600
0600
0600
FFF0
FFF0
0600
0600
0600
0600
0000
FFF0
FFF0
ENDCHAR

STARTCHAR twosuperior
ENCODING 178
SWIDTH 360 0
DWIDTH 9 0
BBX 8 11 0 8
BITMAP
3E
63
63
03
06
0C
18
30
60
C3
FF
ENDCHAR

STARTCHAR threesuperior
ENCODING 179
SWIDTH 360 0
DWIDTH 9 0
BBX 8 11 0 8
BITMAP
3E
63
63
03
06
1C
06
03
C3
C6
7C
ENDCHAR

STARTCHAR Zcaron
ENCODING 180
SWIDTH 580 0
DWIDTH 15 0
BBX 13 24 1 0
BITMAP
18C0
0D80
0700
0200
0000
7FF8
6018
4038
0030
0060
00E0
00C0
0180
0380
0300
0600
0E00
0C00
1800
3800
3000
6008
E018
FFF8
ENDCHAR

STARTCHAR mu
ENCODING 181
SWIDTH 520 0
DWIDTH 13 0
BBX 12 17 1 -5
BITMAP
6060
E0E0
6060
6060
6060
6060
6060
6060
6060
60E0
7160
7E70
6000
6000
6000
6000
6000
ENDCHAR

STARTCHAR paragraph
ENCODING 182
SWIDTH 720 0
DWIDTH 18 0
BBX 15 23 1 -4
BITMAP
1FFE
7FFE
E048
C048
C048
C048
C048
E048
6048
7048
3C48
0FC8
0048
0048
0048
0048
0048
0048
0048
0048
0048
0048
0048
ENDCHAR

STARTCHAR periodcentered
ENCODING 183
SWIDTH 300 0
DWIDTH 7 0
BBX 3 3 2 6
BITMAP
E0
E0
E0
ENDCHAR

STARTCHAR zcaron
ENCODING 184
SWIDTH 420 0
DWIDTH 11 0
BBX 10 17 1 0
BITMAP
3180
1B00
0E00
0400
0000
FF80
C180
8180
0300
0600
0C00
1800
3000
6000
C040
C0C0
FF80
ENDCHAR

STARTCHAR onesuperior
ENCODING 185
SWIDTH 360 0
DWIDTH 9 0
BBX 6 11 2 8
BITMAP
30
F0
30
30
30
30
30
30
30
30
FC
ENDCHAR

STARTCHAR ordmasculine
ENCODING 186
SWIDTH 400 0
DWIDTH 10 0
BBX 8 11 1 8
BITMAP
3C
42
C3
C3
C3
C3
42
3C
00
00
FF
ENDCHAR

STARTCHAR guillemotright
ENCODING 187
SWIDTH 340 0
DWIDTH 9 0
BBX 8 8 1 3
BITMAP
88
CC
66
33
33
66
CC
88
ENDCHAR

STARTCHAR Ligature_OE
ENCODING 188
SWIDTH 1180 0
DWIDTH 30 0
BBX 27 19 1 0
BITMAP
07F1FFC0
1C1D80C0
380F8040
70078000
60038000
60038000
C0018000
C0018000
C0018100
C001FF00
C0018100
C0018000
C0018000
60038000
60038000
70078020
380F8020
1C1D8060
07F1FFE0
ENDCHAR

STARTCHAR Ligature_oe
ENCODING 189
SWIDTH 900 0
DWIDTH 21 0
BBX 19 12 1 0
BITMAP
1F0FC0
60D8E0
60F060
C07060
C060C0
C06180
C07E00
C06000
C06000
60F020
609CE0
1F0F80
ENDCHAR

STARTCHAR Ydiaeresis
ENCODING 190
SWIDTH 700 0
DWIDTH 18 0
BBX 18 23 0 0
BITMAP
031800
031800
000000
000000
F803C0
700180
300100
380300
180200
1C0600
0E0C00
071800
03B000
01E000
00C000
00C000
00C000
00C000
00C000
00C000
00C000
00C000
01E000
ENDCHAR

STARTCHAR questiondown
ENCODING 191
SWIDTH 460 0
DWIDTH 11 0
BBX 9 17 1 -5
BITMAP
0E00
0E00
0E00
0000
0000
0400
0400
0C00
1C00
3800
7000
6000
C000
C180
C180
6300
3E00
ENDCHAR

STARTCHAR Agrave
ENCODING 192
SWIDTH 720 0
DWIDTH 18 0
BBX 18 24 0 0
BITMAP
070000
030000
018000
008000
000000
008000
01C000
01E000
036000
027000
063000
043800
0C1800
081C00
080C00
180C00
100600
3FFE00
200700
200300
600300
400180
400180
E003C0
ENDCHAR

STARTCHAR Aacute
ENCODING 193
SWIDTH 720 0
DWIDTH 18 0
BBX 18 24 0 0
BITMAP
003800
003000
006000
004000
000000
008000
01C000
01E000
036000
027000
063000
043800
0C1800
081C00
080C00
180C00
100600
3FFE00
200700
200300
600300
400180
400180
E003C0
ENDCHAR

STARTCHAR Acircumflex
ENCODING 194
SWIDTH 720 0
DWIDTH 18 0
BBX 18 24 0 0
BITMAP
008000
01C000
036000
063000
000000
008000
01C000
01E000
036000
027000
063000
043800
0C1800
081C00
080C00
180C00
100600
3FFE00
200700
200300
600300
400180
400180
E003C0
ENDCHAR

STARTCHAR Atilde
ENCODING 195
SWIDTH 720 0
DWIDTH 18 0
BBX 18 23 0 0
BITMAP
018800
03F800
023000
000000
008000
01C000
01E000
036000
027000
063000
043800
0C1800
081C00
080C00
180C00
100600
3FFE00
200700
200300
600300
400180
400180
E003C0
ENDCHAR

STARTCHAR Adieresis
ENCODING 196
SWIDTH 720 0
DWIDTH 18 0
BBX 18 22 0 0
BITMAP
063000
063000
000000
008000
01C000
01E000
036000
027000
063000
043800
0C1800
081C00
080C00
180C00
100600
3FFE00
200700
200300
600300
400180
400180
E003C0
ENDCHAR

STARTCHAR Aring
ENCODING 197
SWIDTH 720 0
DWIDTH 18 0
BBX 18 24 0 0
BITMAP
03C000
066000
066000
03C000
000000
008000
01C000
01E000
036000
027000
063000
043800
0C1800
081C00
080C00
180C00
100600
3FFE00
200700
200300
600300
400180
400180
E003C0
ENDCHAR

STARTCHAR AE
ENCODING 198
SWIDTH 960 0
DWIDTH 24 0
BBX 21 19 0 0
BITMAP
00FFF8
01B018
013008
033000
023000
063000
043000
0C3000
083020
083FE0
183020
103000
3FF000
203000
203000
603008
403008
403018
E07FF8
ENDCHAR

STARTCHAR Ccedilla
ENCODING 199
SWIDTH 720 0
DWIDTH 17 0
BBX 15 24 1 -5
BITMAP
07F0
1C1C
380E
7006
6006
6002
C000
C000
C000
C000
C000
C000
C000
6000
6002
7006
380C
1C1C
07F0
0100
0180
00C0
0240
0180
ENDCHAR

STARTCHAR Egrave
ENCODING 200
SWIDTH 600 0
DWIDTH 15 0
BBX 13 24 1 0
BITMAP
0E00
0600
0300
0100
0000
FFF0
6030
6010
6000
6000
6000
6000
6000
6040
7FC0
6040
6000
6000
6000
6000
6008
6008
6018
FFF8
ENDCHAR

STARTCHAR Eacute
ENCODING 201
SWIDTH 600 0
DWIDTH 15 0
BBX 13 24 1 0
BITMAP
01C0
0180
0300
0200
0000
FFF0
6030
6010
6000
6000
6000
6000
6000
6040
7FC0
6040
6000
6000
6000
6000
6008
6008
6018
FFF8
ENDCHAR

STARTCHAR Ecircumflex
ENCODING 202
SWIDTH 600 0
DWIDTH 15 0
BBX 13 24 1 0
BITMAP
0200
0700
0D80
18C0
0000
FFF0
6030
6010
6000
6000
6000
6000
6000
6040
7FC0
6040
6000
6000
6000
6000
6008
6008
6018
FFF8
ENDCHAR

STARTCHAR Edieresis
ENCODING 203
SWIDTH 600 0
DWIDTH 15 0
BBX 13 23 1 0
BITMAP
18C0
18C0
0000
0000
FFF0
6030
6010
6000
6000
6000
6000
6000
6040
7FC0
6040
6000
6000
6000
6000
6008
6008
6018
FFF8
ENDCHAR

STARTCHAR Igrave
ENCODING 204
SWIDTH 260 0
DWIDTH 6 0
BBX 4 24 1 0
BITMAP
E0
60
30
10
00
F0
60
60
60
60
60
60
60
60
60
60
60
60
60
60
60
60
60
F0
ENDCHAR

STARTCHAR Iacute
ENCODING 205
SWIDTH 260 0
DWIDTH 6 0
BBX 5 24 1 0
BITMAP
38
30
60
40
00
F0
60
60
60
60
60
60
60
60
60
60
60
60
60
60
60
60
60
F0
ENDCHAR

STARTCHAR Icircumflex
ENCODING 206
SWIDTH 260 0
DWIDTH 6 0
BBX 7 24 0 0
BITMAP
10
38
6C
C6
00
78
30
30
30
30
30
30
30
30
30
30
30
30
30
30
30
30
30
78
ENDCHAR

STARTCHAR Idieresis
ENCODING 207
SWIDTH 260 0
DWIDTH 6 0
BBX 6 23 0 0
BITMAP
CC
CC
00
00
78
30
30
30
30
30
30
30
30
30
30
30
30
30
30
30
30
30
78
ENDCHAR

STARTCHAR Eth
ENCODING 208
SWIDTH 740 0
DWIDTH 18 0
BBX 17 19 0 0
BITMAP
7FF000
301C00
300E00
300700
300300
300300
300180
300180
300180
FE0180
300180
300180
300180
300300
300300
300700
300E00
301C00
7FF000
ENDCHAR

STARTCHAR Ntilde
ENCODING 209
SWIDTH 740 0
DWIDTH 18 0
BBX 16 23 1 0
BITMAP
0310
07F0
0460
0000
F007
7802
5C02
4E02
4602
4702
4382
4182
41C2
40E2
4062
4072
4032
401A
401E
400E
400E
4006
E006
ENDCHAR

STARTCHAR Ograve
ENCODING 210
SWIDTH 800 0
DWIDTH 20 0
BBX 18 24 1 0
BITMAP
038000
018000
00C000
004000
000000
07F800
1E1E00
380700
300300
600180
600180
C000C0
C000C0
C000C0
C000C0
C000C0
C000C0
C000C0
600180
600180
300300
380700
1E1E00
07F800
ENDCHAR

STARTCHAR Oacute
ENCODING 211
SWIDTH 800 0
DWIDTH 20 0
BBX 18 24 1 0
BITMAP
007000
006000
00C000
008000
000000
07F800
1E1E00
380700
300300
600180
600180
C000C0
C000C0
C000C0
C000C0
C000C0
C000C0
C000C0
600180
600180
300300
380700
1E1E00
07F800
ENDCHAR

STARTCHAR Ocircumflex
ENCODING 212
SWIDTH 800 0
DWIDTH 20 0
BBX 18 24 1 0
BITMAP
008000
01C000
036000
063000
000000
07F800
1E1E00
380700
300300
600180
600180
C000C0
C000C0
C000C0
C000C0
C000C0
C000C0
C000C0
600180
600180
300300
380700
1E1E00
07F800
ENDCHAR

STARTCHAR Otilde
ENCODING 213
SWIDTH 800 0
DWIDTH 20 0
BBX 18 23 1 0
BITMAP
018800
03F800
023000
000000
07F800
1E1E00
380700
300300
600180
600180
C000C0
C000C0
C000C0
C000C0
C000C0
C000C0
C000C0
600180
600180
300300
380700
1E1E00
07F800
ENDCHAR

STARTCHAR Odieresis
ENCODING 214
SWIDTH 800 0
DWIDTH 20 0
BBX 18 23 1 0
BITMAP
033000
033000
000000
000000
07F800
1E1E00
380700
300300
600180
600180
C000C0
C000C0
C000C0
C000C0
C000C0
C000C0
C000C0
600180
600180
300300
380700
1E1E00
07F800
ENDCHAR

STARTCHAR multiply
ENCODING 215
SWIDTH 660 0
DWIDTH 17 0
BBX 12 13 3 1
BITMAP
8010
C030
6060
30C0
1980
0F00
0600
0F00
1980
30C0
6060
C030
8010
ENDCHAR

STARTCHAR Oslash
ENCODING 216
SWIDTH 800 0
DWIDTH 20 0
BBX 18 19 1 0
BITMAP
07F8C0
1C0F80
380700
700380
600780
600D80
C018C0
C030C0
C060C0
C0C0C0
C180C0
C300C0
C600C0
6C0180
780180
700380
380700
7C0E00
C7F800
ENDCHAR

STARTCHAR Ugrave
ENCODING 217
SWIDTH 760 0
DWIDTH 18 0
BBX 16 24 1 0
BITMAP
0380
0180
00C0
0040
0000
F007
6002
6002
6002
6002
6002
6002
6002
6002
6002
6002
6002
6002
6002
7006
3004
380C
1E38
07E0
ENDCHAR

STARTCHAR Uacute
ENCODING 218
SWIDTH 760 0
DWIDTH 18 0
BBX 16 24 1 0
BITMAP
0070
0060
00C0
0080
0000
F007
6002
6002
6002
6002
6002
6002
6002
6002
6002
6002
6002
6002
6002
7006
3004
380C
1E38
07E0
ENDCHAR

STARTCHAR Ucircumflex
ENCODING 219
SWIDTH 760 0
DWIDTH 18 0
BBX 16 24 1 0
BITMAP
0080
01C0
0360
0630
0000
F007
6002
6002
6002
6002
6002
6002
6002
6002
6002
6002
6002
6002
6002
7006
3004
380C
1E38
07E0
ENDCHAR

STARTCHAR Udieresis
ENCODING 220
SWIDTH 760 0
DWIDTH 18 0
BBX 16 22 1 0
BITMAP
0630
0630
0000
F007
6002
6002
6002
6002
6002
6002
6002
6002
6002
6002
6002
6002
6002
7006
3004
380C
1E38
07E0
ENDCHAR

STARTCHAR Yacute
ENCODING 221
SWIDTH 700 0
DWIDTH 18 0
BBX 18 23 0 0
BITMAP
001C00
001800
003000
002000
F803C0
700180
300100
380300
180200
1C0600
0E0C00
071800
03B000
01E000
00C000
00C000
00C000
00C000
00C000
00C000
00C000
00C000
01E000
ENDCHAR

STARTCHAR Thorn
ENCODING 222
SWIDTH 620 0
DWIDTH 15 0
BBX 13 19 1 0
BITMAP
F000
6000
6000
6000
7FC0
6070
6018
6018
6018
6018
6030
60E0
6380
7E00
6000
6000
6000
6000
F000
ENDCHAR

STARTCHAR germandbls
ENCODING 223
SWIDTH 520 0
DWIDTH 13 0
BBX 10 19 2 0
BITMAP
3E00
6300
C180
C180
C180
C180
C300
C400
CE00
C700
C380
C1C0
C0C0
C0C0
C0C0
C0C0
D0C0
D9C0
CF80
ENDCHAR

STARTCHAR agrave
ENCODING 224
SWIDTH 500 0
DWIDTH 12 0
BBX 11 17 1 0
BITMAP
1C00
0C00
0600
0200
0000
3F00
6180
00C0
00C0
1FC0
70C0
E0C0
C0C0
C0C0
C1C0
E3C0
7E60
ENDCHAR

STARTCHAR aacute
ENCODING 225
SWIDTH 500 0
DWIDTH 12 0
BBX 11 17 1 0
BITMAP
0700
0600
0C00
0800
0000
3F00
6180
00C0
00C0
1FC0
70C0
E0C0
C0C0
C0C0
C1C0
E3C0
7E60
ENDCHAR

STARTCHAR acircumflex
ENCODING 226
SWIDTH 500 0
DWIDTH 12 0
BBX 11 17 1 0
BITMAP
0400
0E00
1B00
3180
0000
3F00
6180
00C0
00C0
1FC0
70C0
E0C0
C0C0
C0C0
C1C0
E3C0
7E60
ENDCHAR

STARTCHAR atilde
ENCODING 227
SWIDTH 500 0
DWIDTH 12 0
BBX 11 16 1 0
BITMAP
1880
3F80
2300
0000
3F00
6180
00C0
00C0
1FC0
70C0
E0C0
C0C0
C0C0
C1C0
E3C0
7E60
ENDCHAR

STARTCHAR adieresis
ENCODING 228
SWIDTH 500 0
DWIDTH 12 0
BBX 11 16 1 0
BITMAP
3180
3180
0000
0000
3F00
6180
00C0
00C0
1FC0
70C0
E0C0
C0C0
C0C0
C1C0
E3C0
7E60
ENDCHAR

STARTCHAR aring
ENCODING 229
SWIDTH 500 0
DWIDTH 12 0
BBX 11 17 1 0
BITMAP
1E00
3300
3300
1E00
0000
3F00
6180
00C0
00C0
1FC0
70C0
E0C0
C0C0
C0C0
C1C0
E3C0
7E60
ENDCHAR

STARTCHAR ae
ENCODING 230
SWIDTH 800 0
DWIDTH 20 0
BBX 18 12 1 0
BITMAP
3F1F80
61B1C0
00E0C0
00E0C0
1FC180
70C300
E0FC00
C0C000
C0C000
C1E040
E379C0
7E1F00
ENDCHAR

STARTCHAR ccedilla
ENCODING 231
SWIDTH 460 0
DWIDTH 12 0
BBX 10 17 1 -5
BITMAP
1F00
60C0
60C0
C000
C000
C000
C000
C000
C000
6040
61C0
1F00
0800
0C00
0600
1200
0C00
ENDCHAR

STARTCHAR egrave
ENCODING 232
SWIDTH 500 0
DWIDTH 12 0
BBX 10 17 1 0
BITMAP
1C00
0C00
0600
0200
0000
1F80
31C0
60C0
60C0
C180
C300
FC00
C000
C000
6040
79C0
1F00
ENDCHAR

STARTCHAR eacute
ENCODING 233
SWIDTH 500 0
DWIDTH 12 0
BBX 10 17 1 0
BITMAP
0700
0600
0C00
0800
0000
1F80
31C0
60C0
60C0
C180
C300
FC00
C000
C000
6040
79C0
1F00
ENDCHAR

STARTCHAR ecircumflex
ENCODING 234
SWIDTH 500 0
DWIDTH 12 0
BBX 10 17 1 0
BITMAP
0400
0E00
1B00
3180
0000
1F80
31C0
60C0
60C0
C180
C300
FC00
C000
C000
6040
79C0
1F00
ENDCHAR

STARTCHAR edieresis
ENCODING 235
SWIDTH 500 0
DWIDTH 12 0
BBX 10 16 1 0
BITMAP
3180
3180
0000
0000
1F80
31C0
60C0
60C0
C180
C300
FC00
C000
C000
6040
79C0
1F00
ENDCHAR

STARTCHAR igrave
ENCODING 236
SWIDTH 240 0
DWIDTH 6 0
BBX 5 17 0 0
BITMAP
E0
60
30
10
00
30
70
30
30
30
30
30
30
30
30
30
78
ENDCHAR

STARTCHAR iacute
ENCODING 237
SWIDTH 240 0
DWIDTH 6 0
BBX 4 17 1 0
BITMAP
70
60
C0
80
00
60
E0
60
60
60
60
60
60
60
60
60
F0
ENDCHAR

STARTCHAR icircumflex
ENCODING 238
SWIDTH 240 0
DWIDTH 6 0
BBX 7 17 0 0
BITMAP
10
38
6C
C6
00
30
70
30
30
30
30
30
30
30
30
30
78
ENDCHAR

STARTCHAR idieresis
ENCODING 239
SWIDTH 240 0
DWIDTH 6 0
BBX 7 16 0 0
BITMAP
C6
C6
00
00
30
70
30
30
30
30
30
30
30
30
30
78
ENDCHAR

STARTCHAR eth
ENCODING 240
SWIDTH 570 0
DWIDTH 13 0
BBX 11 17 1 0
BITMAP
E000
1CC0
0F00
3300
0180
1FC0
60C0
60E0
C060
C060
C060
C060
C060
C060
60C0
60C0
1F00
ENDCHAR

STARTCHAR ntilde
ENCODING 241
SWIDTH 560 0
DWIDTH 14 0
BBX 12 16 1 0
BITMAP
1880
3F80
2300
0000
6F80
F0C0
6060
6060
6060
6060
6060
6060
6060
6060
6060
F0F0
ENDCHAR

STARTCHAR ograve
ENCODING 242
SWIDTH 560 0
DWIDTH 13 0
BBX 11 17 1 0
BITMAP
1C00
0C00
0600
0200
0000
1F00
60C0
60C0
C060
C060
C060
C060
C060
C060
60C0
60C0
1F00
ENDCHAR

STARTCHAR oacute
ENCODING 243
SWIDTH 560 0
DWIDTH 13 0
BBX 11 17 1 0
BITMAP
0700
0600
0C00
0800
0000
1F00
60C0
60C0
C060
C060
C060
C060
C060
C060
60C0
60C0
1F00
ENDCHAR

STARTCHAR ocircumflex
ENCODING 244
SWIDTH 560 0
DWIDTH 13 0
BBX 11 17 1 0
BITMAP
0400
0E00
1B00
3180
0000
1F00
60C0
60C0
C060
C060
C060
C060
C060
C060
60C0
60C0
1F00
ENDCHAR

STARTCHAR otilde
ENCODING 245
SWIDTH 560 0
DWIDTH 13 0
BBX 11 16 1 0
BITMAP
1880
3F80
2300
0000
1F00
60C0
60C0
C060
C060
C060
C060
C060
C060
60C0
60C0
1F00
ENDCHAR

STARTCHAR odieresis
ENCODING 246
SWIDTH 560 0
DWIDTH 13 0
BBX 11 16 1 0
BITMAP
3180
3180
0000
0000
1F00
60C0
60C0
C060
C060
C060
C060
C060
C060
60C0
60C0
1F00
ENDCHAR

STARTCHAR divide
ENCODING 247
SWIDTH 660 0
DWIDTH 17 0
BBX 12 12 3 1
BITMAP
0600
0600
0600
0000
0000
FFF0
FFF0
0000
0000
0600
0600
0600
ENDCHAR

STARTCHAR oslash
ENCODING 248
SWIDTH 560 0
DWIDTH 14 0
BBX 13 12 0 0
BITMAP
0F98
3070
3060
60F0
61B0
6330
6630
6C30
7830
3060
7060
CF80
ENDCHAR

STARTCHAR ugrave
ENCODING 249
SWIDTH 520 0
DWIDTH 13 0
BBX 12 17 1 0
BITMAP
0E00
0600
0300
0100
0000
6060
E0E0
6060
6060
6060
6060
6060
6060
6060
60E0
7160
3E70
ENDCHAR

STARTCHAR uacute
ENCODING 250
SWIDTH 520 0
DWIDTH 13 0
BBX 12 17 1 0
BITMAP
0380
0300
0600
0400
0000
6060
E0E0
6060
6060
6060
6060
6060
6060
6060
60E0
7160
3E70
ENDCHAR

STARTCHAR ucircumflex
ENCODING 251
SWIDTH 520 0
DWIDTH 13 0
BBX 12 17 1 0
BITMAP
0400
0E00
1B00
3180
0000
6060
E0E0
6060
6060
6060
6060
6060
6060
6060
60E0
7160
3E70
ENDCHAR

STARTCHAR udieresis
ENCODING 252
SWIDTH 520 0
DWIDTH 13 0
BBX 12 16 1 0
BITMAP
18C0
18C0
0000
0000
6060
E0E0
6060
6060
6060
6060
6060
6060
6060
60E0
7160
3E70
ENDCHAR

STARTCHAR yacute
ENCODING 253
SWIDTH 480 0
DWIDTH 12 0
BBX 12 22 0 -5
BITMAP
01C0
0180
0300
0200
0000
F070
6020
6020
6020
6020
6020
6060
3040
3040
18C0
1D80
0F80
0100
0300
0600
4C00
7800
ENDCHAR

STARTCHAR thorn
ENCODING 254
SWIDTH 580 0
DWIDTH 14 0
BBX 12 24 1 -5
BITMAP
6000
E000
6000
6000
6000
6000
6000
6F80
7860
6060
6030
6030
6030
6030
6030
6030
6060
6860
6780
6000
6000
6000
6000
F000
ENDCHAR

STARTCHAR ydieresis
ENCODING 255
SWIDTH 480 0
DWIDTH 12 0
BBX 12 21 0 -5
BITMAP
18C0
18C0
0000
0000
F070
6020
6020
6020
6020
6020
6060
3040
3040
18C0
1D80
0F80
0100
0300
0600
4C00
7800
ENDCHAR
ENDFONT
